<?xml version="1.0" encoding="UTF-8"?> <svg xmlns="http://www.w3.org/2000/svg" id="Layer_1" data-name="Layer 1" viewBox="0 0 80 80"><title>Icon_foodora_page_Proof_Whoweare_Vektor_VO1_MB</title><path d="M44.85,72.12a7.91,7.91,0,1,1,7.91-7.92A7.92,7.92,0,0,1,44.85,72.12Zm0-14.48a6.56,6.56,0,1,0,6.56,6.56A6.57,6.57,0,0,0,44.85,57.64Z" fill="#d42166"></path><path d="M65.12,72.12A7.91,7.91,0,1,1,73,64.21,7.92,7.92,0,0,1,65.12,72.12Zm0-14.48a6.56,6.56,0,1,0,6.56,6.56A6.57,6.57,0,0,0,65.12,57.64Z" fill="#d42166"></path><path d="M55,64.88H44.85a.67.67,0,0,1-.63-.91l4.24-11.31L47.14,50a.67.67,0,0,1,1.21-.6L55.59,63.9a.67.67,0,0,1-.6,1Zm-9.16-1.35h8.07l-4.61-9.22Z" fill="#d42166"></path><path d="M55,64.88a.67.67,0,0,1-.63-.91L58.7,52.38a.67.67,0,0,1,1.26.47L55.62,64.44A.67.67,0,0,1,55,64.88Z" fill="#d42166"></path><path d="M59.33,53.3H49.19a.67.67,0,0,1,0-1.35H59.33a.67.67,0,0,1,0,1.35Z" fill="#d42166"></path><path d="M52,50.4H45a.67.67,0,1,1,0-1.35h7a.67.67,0,1,1,0,1.35Z" fill="#d42166"></path><path d="M65.12,64.88a.67.67,0,0,1-.6-.37L56.79,49.05H64.4a2.85,2.85,0,0,1,0,5.69H62.95a.67.67,0,1,1,0-1.35H64.4a1.5,1.5,0,0,0,0-3H59l6.75,13.5a.67.67,0,0,1-.3.91A.67.67,0,0,1,65.12,64.88Z" fill="#d42166"></path><path d="M58,44.9H54.35a.5.5,0,0,1-.5-.5V39.34H52a.5.5,0,0,1,0-1h2.38a.5.5,0,0,1,.5.5V43.9H58a.5.5,0,0,1,0,1Z" fill="#989898"></path><path d="M13.64,65.7a.5.5,0,0,1-.5-.5V35.92a.5.5,0,0,1,.5-.5h.56V26.66a.5.5,0,0,1,.5-.5h5.11V24.38a.5.5,0,0,1,.5-.5h5.24a.5.5,0,0,1,.5.5v5.06h.51a.5.5,0,0,1,.5.5v19a.5.5,0,0,1-1,0V30.44h-.51a.5.5,0,0,1-.5-.5V24.88H20.81v1.78a.5.5,0,0,1-.5.5H15.2v8.76a.5.5,0,0,1-.5.5h-.56V65.2A.5.5,0,0,1,13.64,65.7Z" fill="#989898"></path><path d="M37.25,52.73H34a.5.5,0,0,1-.5-.5V49.39H26.56a.5.5,0,1,1,0-1H34a.5.5,0,0,1,.5.5v2.84h2.28V45a.5.5,0,0,1,.5-.5h6.12V21.21a.5.5,0,0,1,.5-.5h6.19a.5.5,0,0,1,.5.5V32.78H52a.5.5,0,0,1,.5.5v5.56a.5.5,0,0,1-1,0V33.78H50.06a.5.5,0,0,1-.5-.5V21.71H44.37V45a.5.5,0,0,1-.5.5H37.75v6.75A.5.5,0,0,1,37.25,52.73Z" fill="#989898"></path><path d="M43.87,37.06H41.75a.5.5,0,0,1-.5-.5V26.39l-.46-.46a.5.5,0,0,1-.15-.35V21.5l-2.7-8.61a.44.44,0,0,1,0-.11l-.06-.67-.06.67a.44.44,0,0,1,0,.11l-2.7,8.61v4.08a.5.5,0,0,1-.15.35l-.46.46v4.82a.5.5,0,0,1-.5.5H30.81v4.11a.5.5,0,0,1-.5.5H26.56a.5.5,0,1,1,0-1h3.26V31.21a.5.5,0,0,1,.5-.5h3.16V26.18a.5.5,0,0,1,.15-.35l.46-.46V21.42a.49.49,0,0,1,0-.15l2.71-8.63.37-4.13a.5.5,0,0,1,.5-.46H38a.5.5,0,0,1,.5.46l.37,4.13,2.71,8.63a.49.49,0,0,1,0,.15v3.95l.46.46a.5.5,0,0,1,.15.35v9.88h1.62a.5.5,0,0,1,0,1Z" fill="#989898"></path></svg> 